<svg width="256" height="261" viewBox="0 0 256 261" fill="none" xmlns="http://www.w3.org/2000/svg">
<path fill-rule="evenodd" clip-rule="evenodd" d="M167.622 71.9517C168.597 72.4187 169.367 73.1466 169.861 74.0942L170.232 74.7809L170.314 80.6178C170.396 86.9762 170.397 86.9768 171.251 88.2237L171.262 88.2401C171.495 88.5698 171.962 89.0367 172.292 89.2702L172.308 89.2815C173.555 90.1354 173.556 90.1358 179.914 90.2178L185.751 90.3002L186.438 90.6711C187.385 91.1655 188.113 91.9346 188.58 92.9097L188.979 93.7337V98.8153C188.979 101.603 189.033 104.281 189.102 104.762C189.349 106.383 190.27 107.687 191.657 108.374C192.233 108.649 192.536 108.704 193.648 108.704C194.761 108.704 195.063 108.649 195.639 108.374C197.027 107.687 197.947 106.383 198.194 104.762C198.263 104.281 198.318 101.603 198.318 98.8153V93.7337L198.716 92.9097C199.21 91.8659 199.952 91.1243 200.996 90.6298C201.71 90.2865 201.985 90.2316 202.987 90.2316C203.99 90.2316 204.264 90.2865 204.979 90.6298C206.022 91.1243 206.764 91.8659 207.258 92.9097L207.657 93.7337V98.8153C207.657 101.603 207.712 104.281 207.78 104.762C207.945 105.861 208.385 106.753 209.099 107.468C209.923 108.292 210.747 108.649 212.381 108.841C213.974 109.033 214.839 109.404 215.664 110.242C216.501 111.066 216.872 111.931 217.064 113.524C217.257 115.159 217.614 115.983 218.438 116.807C219.372 117.754 220.141 118.043 221.665 118.043C223.19 118.043 223.959 117.754 224.893 116.807C225.717 115.983 226.074 115.159 226.266 113.524C226.458 111.931 226.829 111.066 227.667 110.242C228.491 109.404 229.356 109.033 230.949 108.841C232.584 108.649 233.408 108.292 234.232 107.468C234.946 106.753 235.385 105.861 235.55 104.762C235.619 104.281 235.674 101.603 235.674 98.8153V93.7337L236.072 92.9097C236.567 91.8659 237.308 91.1243 238.352 90.6298C239.066 90.2865 239.341 90.2316 240.343 90.2316C241.346 90.2316 241.621 90.2865 242.335 90.6298C243.379 91.1243 244.12 91.8659 244.615 92.9097L245.013 93.7337V114.747L244.615 115.571C243.818 117.26 242.596 118.043 240.398 118.317C238.764 118.51 237.94 118.867 237.116 119.691C236.402 120.405 235.962 121.298 235.797 122.396C235.729 122.877 235.674 125.541 235.674 128.343V133.425L235.276 134.249C234.781 135.293 234.039 136.034 232.996 136.529C232.282 136.872 232.007 136.927 231.004 136.927C230.002 136.927 229.727 136.872 229.013 136.529C227.324 135.732 226.541 134.51 226.266 132.312C226.074 130.678 225.717 129.854 224.893 129.03C224.179 128.316 223.286 127.876 222.187 127.711C221.706 127.643 219.042 127.588 216.24 127.588H211.159L210.335 127.19C208.645 126.393 207.863 125.171 207.588 122.973C207.396 121.339 207.039 120.515 206.215 119.691C205.281 118.743 204.512 118.455 202.987 118.455C201.463 118.455 200.694 118.743 199.76 119.691C198.936 120.515 198.579 121.339 198.386 122.973C198.194 124.566 197.823 125.432 196.985 126.256C196.161 127.093 195.296 127.464 193.703 127.656C192.069 127.849 191.245 128.206 190.421 129.03C189.597 129.854 189.239 130.678 189.047 132.312C188.855 133.905 188.484 134.771 187.646 135.595C186.822 136.432 185.957 136.803 184.364 136.996C182.73 137.188 181.906 137.545 181.082 138.369C180.134 139.303 179.845 140.072 179.845 141.596C179.845 143.121 180.134 143.89 181.082 144.824C181.906 145.648 182.73 146.005 184.364 146.197C186.561 146.472 187.784 147.255 188.58 148.944C188.924 149.658 188.979 149.933 188.979 150.935C188.979 151.938 188.924 152.213 188.58 152.927C187.784 154.616 186.561 155.399 184.364 155.674C182.73 155.866 181.906 156.223 181.082 157.047C180.134 157.981 179.845 158.75 179.845 160.274C179.845 161.387 179.9 161.689 180.175 162.266C180.889 163.694 182.18 164.587 183.897 164.82C184.46 164.903 188.704 164.944 194.362 164.917C202.905 164.875 203.935 164.848 204.47 164.642C205.363 164.285 206.228 163.626 206.695 162.953L206.707 162.936C207.561 161.689 207.561 161.689 207.643 155.33L207.725 149.493L208.096 148.807C208.934 147.214 210.142 146.458 212.271 146.197C213.906 146.005 214.73 145.648 215.554 144.824C216.378 144 216.735 143.176 216.927 141.541C217.202 139.344 217.985 138.122 219.674 137.325C220.388 136.982 220.663 136.927 221.665 136.927C222.668 136.927 222.942 136.982 223.657 137.325C225.346 138.122 226.129 139.344 226.403 141.541C226.596 143.176 226.953 144 227.777 144.824C228.601 145.648 229.425 146.005 231.059 146.197C233.257 146.472 234.479 147.255 235.276 148.944L235.674 149.768V161.442L235.276 162.266C234.781 163.31 234.039 164.051 232.996 164.546C232.282 164.889 232.007 164.944 231.004 164.944C230.002 164.944 229.727 164.889 229.013 164.546C227.324 163.749 226.541 162.527 226.266 160.329C226.074 158.695 225.717 157.871 224.893 157.047C223.959 156.099 223.19 155.811 221.665 155.811C220.553 155.811 220.251 155.866 219.674 156.141C218.287 156.827 217.367 158.132 217.119 159.753C217.051 160.233 216.996 162.568 216.996 164.944C216.996 167.32 217.051 169.655 217.119 170.135C217.284 171.234 217.724 172.127 218.438 172.841C219.262 173.665 220.086 174.022 221.72 174.214C223.918 174.489 225.14 175.272 225.936 176.961L226.335 177.785V189.459L225.936 190.283C225.14 191.972 223.918 192.755 221.72 193.03C220.086 193.222 219.262 193.579 218.438 194.403C217.614 195.227 217.257 196.051 217.064 197.686C216.872 199.279 216.501 200.144 215.664 200.968C214.839 201.806 213.974 202.177 212.381 202.369C210.747 202.561 209.923 202.918 209.099 203.742C208.385 204.456 207.945 205.349 207.78 206.448C207.712 206.929 207.657 209.263 207.657 211.639C207.657 214.015 207.712 216.35 207.78 216.831C207.945 217.929 208.385 218.822 209.099 219.536C209.923 220.36 210.747 220.717 212.381 220.91C213.974 221.102 214.839 221.473 215.664 222.311C216.501 223.135 216.872 224 217.064 225.593C217.257 227.227 217.614 228.051 218.438 228.875C219.372 229.823 220.141 230.111 221.665 230.111C223.19 230.111 223.959 229.823 224.893 228.875C225.84 227.941 226.129 227.172 226.129 225.648C226.129 224.123 225.84 223.354 224.893 222.42C224.069 221.596 223.245 221.239 221.61 221.047C219.413 220.772 218.191 219.99 217.394 218.3C217.051 217.586 216.996 217.311 216.996 216.309C216.996 215.306 217.051 215.032 217.394 214.317C218.191 212.628 219.413 211.845 221.61 211.571C223.245 211.378 224.069 211.021 224.893 210.197C225.607 209.483 226.046 208.59 226.211 207.492C226.28 207.011 226.335 204.333 226.335 201.545V196.463L226.733 195.639C227.227 194.596 227.969 193.854 229.013 193.359C229.727 193.016 230.002 192.961 231.004 192.961C232.007 192.961 232.282 193.016 232.996 193.359C234.039 193.854 234.781 194.596 235.276 195.639L235.674 196.463V206.214C235.674 211.571 235.729 216.35 235.797 216.831C235.962 217.929 236.402 218.822 237.116 219.536C237.94 220.36 238.764 220.717 240.398 220.91C242.596 221.184 243.818 221.967 244.615 223.656L245.013 224.48V245.493L244.615 246.317C244.12 247.361 243.379 248.103 242.335 248.597C241.621 248.941 241.346 248.996 240.343 248.996C239.341 248.996 239.066 248.941 238.352 248.597C236.663 247.801 235.88 246.578 235.605 244.381C235.413 242.747 235.056 241.923 234.232 241.099C233.518 240.384 232.625 239.945 231.526 239.78C230.4 239.629 222.27 239.629 221.143 239.78C220.045 239.945 219.152 240.384 218.438 241.099C217.614 241.923 217.257 242.747 217.064 244.381C216.79 246.578 216.007 247.801 214.318 248.597C213.603 248.941 213.329 248.996 212.326 248.996C211.324 248.996 211.049 248.941 210.335 248.597C209.36 248.13 208.591 247.402 208.096 246.455L207.725 245.768L207.643 239.931C207.561 233.573 207.561 233.572 206.707 232.325L206.695 232.309C206.462 231.979 205.995 231.512 205.665 231.279L205.649 231.267C204.402 230.414 204.401 230.413 198.043 230.331L192.206 230.249L191.519 229.878C190.64 229.425 189.871 228.656 189.418 227.777L189.047 227.09L188.965 221.253C188.883 214.895 188.882 214.894 188.028 213.647L188.017 213.631C187.55 212.958 186.685 212.299 185.792 211.941C185.27 211.735 184.542 211.708 179.639 211.708C174.736 211.708 174.009 211.735 173.487 211.941C172.594 212.299 171.729 212.958 171.262 213.631L171.251 213.647C170.397 214.894 170.396 214.895 170.314 221.253L170.232 227.09L169.861 227.777C169.023 229.37 167.815 230.125 165.686 230.386C164.052 230.578 163.227 230.935 162.403 231.759C161.579 232.583 161.222 233.408 161.03 235.042C160.755 237.239 159.973 238.462 158.283 239.258C157.569 239.602 157.294 239.656 156.292 239.656C155.289 239.656 155.015 239.602 154.3 239.258C152.611 238.462 151.828 237.239 151.554 235.042C151.361 233.408 151.004 232.583 150.18 231.759C149.356 230.935 148.532 230.578 146.898 230.386C144.7 230.111 143.478 229.329 142.682 227.639L142.283 226.815V221.734C142.283 218.932 142.228 216.268 142.16 215.787C141.995 214.688 141.555 213.796 140.841 213.081C140.017 212.257 139.193 211.9 137.559 211.708C135.361 211.433 134.139 210.65 133.342 208.961C132.999 208.247 132.944 207.972 132.944 206.97C132.944 205.967 132.999 205.693 133.342 204.978C134.139 203.289 135.361 202.506 137.559 202.232C139.193 202.039 140.017 201.682 140.841 200.858C141.555 200.144 141.995 199.251 142.16 198.153C142.228 197.672 142.283 194.994 142.283 192.206V187.124L142.682 186.3C143.176 185.256 143.918 184.515 144.961 184.02C145.676 183.677 145.95 183.622 146.953 183.622C147.955 183.622 148.23 183.677 148.944 184.02C150.633 184.817 151.416 186.039 151.691 188.237C151.883 189.871 152.24 190.695 153.064 191.519C153.998 192.467 154.767 192.755 156.292 192.755C157.404 192.755 157.706 192.7 158.283 192.426C159.67 191.739 160.591 190.434 160.838 188.814C160.906 188.333 160.961 183.553 160.961 178.197V168.446L161.36 167.622C162.156 165.933 163.379 165.15 165.576 164.875C167.21 164.683 168.034 164.326 168.858 163.502C169.6 162.774 170.012 161.881 170.177 160.687C170.259 160.123 170.3 155.88 170.273 150.221C170.232 141.679 170.204 140.649 169.998 140.113C169.641 139.22 168.982 138.355 168.309 137.888L168.293 137.877C167.046 137.023 167.045 137.023 160.687 136.941L154.85 136.858L154.163 136.487C153.215 135.993 152.488 135.224 152.021 134.249C151.677 133.535 151.622 133.26 151.622 132.257C151.622 131.255 151.677 130.98 152.021 130.266C152.817 128.577 154.039 127.794 156.237 127.519C157.871 127.327 158.695 126.97 159.519 126.146C160.343 125.322 160.7 124.498 160.893 122.863C161.167 120.666 161.95 119.444 163.639 118.647C164.354 118.304 164.628 118.249 165.631 118.249C166.633 118.249 166.908 118.304 167.622 118.647C169.312 119.444 170.094 120.666 170.369 122.863C170.561 124.498 170.918 125.322 171.742 126.146C172.676 127.093 173.445 127.382 174.97 127.382C176.494 127.382 177.264 127.093 178.197 126.146C179.145 125.212 179.433 124.443 179.433 122.918C179.433 121.394 179.145 120.625 178.197 119.691C177.373 118.867 176.549 118.51 174.915 118.317C172.718 118.043 171.495 117.26 170.699 115.571C170.355 114.856 170.3 114.582 170.3 113.579C170.3 112.577 170.355 112.302 170.699 111.588C171.495 109.899 172.718 109.116 174.915 108.841C176.549 108.649 177.373 108.292 178.197 107.468C179.145 106.534 179.433 105.765 179.433 104.24C179.433 103.128 179.379 102.826 179.104 102.249C178.417 100.862 177.112 99.9414 175.492 99.6942C175.011 99.6256 170.575 99.5706 165.631 99.5706C160.687 99.5706 156.251 99.6256 155.77 99.6942C154.671 99.859 153.779 100.299 153.064 101.013C152.24 101.837 151.883 102.661 151.691 104.295C151.416 106.493 150.633 107.715 148.944 108.511L148.12 108.91H136.446L135.622 108.511C134.579 108.017 133.837 107.275 133.342 106.232C132.999 105.517 132.944 105.243 132.944 104.24C132.944 103.238 132.999 102.963 133.342 102.249C134.139 100.559 135.361 99.7766 137.559 99.502C139.193 99.3097 140.017 98.9526 140.841 98.1286C141.665 97.3045 142.022 96.4805 142.215 94.8462C142.407 93.253 142.778 92.3878 143.615 91.5638C144.439 90.726 145.305 90.3552 146.898 90.1629C148.532 89.9706 149.356 89.6135 150.18 88.7895C151.004 87.9655 151.361 87.1414 151.554 85.5071C151.746 83.914 152.117 83.0487 152.955 82.2247C153.779 81.3869 154.644 81.0161 156.237 80.8238C157.871 80.6316 158.695 80.2745 159.519 79.4505C160.343 78.6264 160.7 77.8024 160.893 76.168C161.167 73.9706 161.95 72.7483 163.639 71.9517C164.354 71.6084 164.628 71.5535 165.631 71.5535C166.633 71.5535 166.908 71.6084 167.622 71.9517ZM170.863 176.934C171.495 175.629 172.855 174.64 174.324 174.42C174.723 174.365 179.433 174.324 184.79 174.338C193.593 174.352 194.596 174.379 195.131 174.585C196.477 175.121 197.466 176.11 198.015 177.469C198.221 178.005 198.249 178.953 198.249 188.292C198.249 197.631 198.221 198.578 198.015 199.114C197.466 200.46 196.477 201.449 195.131 201.998C194.596 202.204 193.648 202.232 184.309 202.232C174.97 202.232 174.022 202.204 173.487 201.998C172.127 201.449 171.138 200.46 170.603 199.114C170.397 198.578 170.369 197.548 170.328 189.006C170.3 183.347 170.342 179.104 170.424 178.541C170.493 178.005 170.699 177.277 170.863 176.934ZM151.938 214.88C152.391 213.576 153.449 212.463 154.754 211.983C155.578 211.667 157.446 211.777 158.283 212.189C159.149 212.614 159.986 213.452 160.426 214.317C160.7 214.894 160.755 215.196 160.755 216.309C160.755 217.833 160.467 218.602 159.519 219.536C158.585 220.484 157.816 220.772 156.292 220.772C155.179 220.772 154.877 220.717 154.3 220.443C153.435 220.003 152.597 219.165 152.172 218.3C151.732 217.421 151.636 215.787 151.938 214.88Z" fill="white"/>
<path d="M158.283 146.664C159.327 147.159 160.069 147.9 160.563 148.944L160.961 149.768V161.442L160.563 162.266C159.767 163.955 158.544 164.738 156.347 165.013C154.712 165.205 153.888 165.562 153.064 166.386C152.24 167.21 151.883 168.034 151.691 169.668C151.43 171.797 150.675 173.006 149.082 173.844L148.395 174.214L142.558 174.297C136.2 174.379 136.199 174.379 134.952 175.233L134.936 175.244C134.606 175.478 134.139 175.945 133.906 176.274L133.894 176.291C133.04 177.538 133.04 177.538 132.958 183.897L132.876 189.734L132.505 190.42C131.667 192.014 130.458 192.769 128.33 193.03C126.695 193.222 125.871 193.579 125.047 194.403C124.223 195.227 123.866 196.051 123.674 197.686C123.399 199.883 122.616 201.105 120.927 201.902C120.213 202.245 119.938 202.3 118.936 202.3C117.933 202.3 117.658 202.245 116.944 201.902C115.255 201.105 114.472 199.883 114.197 197.686C114.005 196.051 113.648 195.227 112.824 194.403C112 193.579 111.176 193.222 109.542 193.03C107.344 192.755 106.122 191.972 105.325 190.283C104.982 189.569 104.927 189.294 104.927 188.292C104.927 187.289 104.982 187.014 105.325 186.3C106.122 184.611 107.344 183.828 109.542 183.553C111.176 183.361 112 183.004 112.824 182.18C113.772 181.246 114.06 180.477 114.06 178.953C114.06 177.84 114.005 177.538 113.73 176.961C113.044 175.574 111.739 174.654 110.118 174.407C109.638 174.338 106.973 174.283 104.172 174.283H99.0901L98.2661 173.885C96.5768 173.088 95.794 171.866 95.5193 169.668C95.327 168.034 94.97 167.21 94.1459 166.386C93.212 165.438 92.4429 165.15 90.9185 165.15C89.394 165.15 88.6249 165.438 87.691 166.386C86.867 167.21 86.5099 168.034 86.3176 169.668C86.0429 171.866 85.2601 173.088 83.5708 173.885L82.7468 174.283H43.0558L42.2318 173.885C41.188 173.39 40.4464 172.649 39.9519 171.605C39.6086 170.891 39.5536 170.616 39.5536 169.614C39.5536 168.611 39.6086 168.336 39.9519 167.622C40.7485 165.933 41.9708 165.15 44.1682 164.875C45.8026 164.683 46.6266 164.326 47.4506 163.502C48.2747 162.678 48.6318 161.854 48.824 160.22C49.0987 158.022 49.8815 156.8 51.5708 156.003C52.285 155.66 52.5597 155.605 53.5622 155.605C54.5648 155.605 54.8395 155.66 55.5536 156.003C57.2429 156.8 58.0257 158.022 58.3004 160.22C58.4927 161.854 58.8498 162.678 59.6738 163.502C60.388 164.216 61.2807 164.656 62.3794 164.82C63.5056 164.971 71.636 164.971 72.7622 164.82C73.8609 164.656 74.7536 164.216 75.4678 163.502C76.2918 162.678 76.6489 161.854 76.8412 160.22C77.1159 158.022 77.8987 156.8 79.588 156.003L80.412 155.605H110.764L111.588 156.003C113.277 156.8 114.06 158.022 114.335 160.22C114.527 161.854 114.884 162.678 115.708 163.502C116.422 164.216 117.315 164.656 118.414 164.82C119.54 164.971 127.67 164.971 128.797 164.82C129.895 164.656 130.788 164.216 131.502 163.502C132.326 162.678 132.683 161.854 132.876 160.22C133.15 158.022 133.933 156.8 135.622 156.003L136.446 155.605H141.528C144.33 155.605 146.994 155.55 147.475 155.481C148.573 155.317 149.466 154.877 150.18 154.163C151.004 153.339 151.361 152.515 151.554 150.88C151.828 148.683 152.611 147.461 154.3 146.664C155.015 146.321 155.289 146.266 156.292 146.266C157.294 146.266 157.569 146.321 158.283 146.664Z" fill="white"/>
<path fill-rule="evenodd" clip-rule="evenodd" d="M132.464 112.178C136.474 113.044 139.88 114.898 142.764 117.768C145.058 120.075 146.706 122.699 147.694 125.679C148.505 128.11 148.67 129.236 148.67 132.257C148.67 135.279 148.505 136.405 147.694 138.836C146.706 141.816 145.058 144.439 142.764 146.747C140.457 149.04 137.833 150.688 134.853 151.677C132.422 152.487 131.296 152.652 128.275 152.652C125.253 152.652 124.127 152.487 121.696 151.677C118.716 150.688 116.093 149.04 113.785 146.747C111.492 144.439 109.844 141.816 108.855 138.836C108.045 136.405 107.88 135.279 107.88 132.257C107.88 129.236 108.045 128.11 108.855 125.679C109.844 122.699 111.492 120.075 113.785 117.768C116.93 114.637 120.68 112.714 125.075 112C126.791 111.725 130.802 111.821 132.464 112.178ZM123.88 129.208C130.101 126.517 134.276 124.814 135.581 124.429C136.652 124.113 136.556 124.127 137.023 124.305C137.545 124.498 137.614 124.649 137.614 125.624C137.614 127.286 135.54 140.278 135.114 141.294C134.826 141.981 134.304 142.42 133.809 142.42C133.164 142.42 132.724 142.173 129.14 139.756C126.256 137.806 125.253 137.009 125.253 136.638C125.253 136.213 125.954 135.457 128.81 132.752C130.554 131.117 132.093 129.62 132.203 129.428C132.477 129.016 132.367 128.686 131.955 128.686C131.791 128.686 129.621 130.032 127.121 131.708C124.621 133.356 122.328 134.826 122.026 134.949C121.27 135.265 120.103 135.141 118.153 134.537C116.45 134.029 115.736 133.672 115.667 133.315C115.598 132.971 116.189 132.505 117.301 132.038C117.864 131.79 120.817 130.527 123.88 129.208Z" fill="white"/>
<path d="M83.5708 118.647C85.2601 119.444 86.0429 120.666 86.3176 122.863C86.5099 124.498 86.867 125.322 87.691 126.146C88.4051 126.86 89.2979 127.299 90.3966 127.464C90.8773 127.533 93.5554 127.588 96.3433 127.588H101.425L102.249 127.986C103.293 128.48 104.034 129.222 104.529 130.266C104.872 130.98 104.927 131.255 104.927 132.257C104.927 133.26 104.872 133.535 104.529 134.249C104.034 135.293 103.293 136.034 102.249 136.529L101.425 136.927H71.073L70.2489 136.529C69.2052 136.034 68.4635 135.293 67.9691 134.249C67.6257 133.535 67.5708 133.26 67.5708 132.257C67.5708 131.255 67.6257 130.98 67.9691 130.266C68.7657 128.577 69.988 127.794 72.1854 127.519C73.8197 127.327 74.6438 126.97 75.4678 126.146C76.2918 125.322 76.6489 124.498 76.8412 122.863C77.1159 120.666 77.8987 119.444 79.588 118.647C80.3021 118.304 80.5768 118.249 81.5794 118.249C82.582 118.249 82.8567 118.304 83.5708 118.647Z" fill="white"/>
<path d="M92.9099 109.308C93.9536 109.802 94.6953 110.544 95.1897 111.588C95.533 112.302 95.588 112.577 95.588 113.579C95.588 114.582 95.533 114.856 95.1897 115.571C94.6953 116.614 93.9536 117.356 92.9099 117.85C92.1957 118.194 91.921 118.249 90.9185 118.249C89.9159 118.249 89.6412 118.194 88.927 117.85C87.8833 117.356 87.1416 116.614 86.6472 115.571C86.3039 114.856 86.2489 114.582 86.2489 113.579C86.2489 112.577 86.3039 112.302 86.6472 111.588C87.1416 110.544 87.8833 109.802 88.927 109.308C89.6412 108.965 89.9159 108.91 90.9185 108.91C91.921 108.91 92.1957 108.965 92.9099 109.308Z" fill="white"/>
<path d="M74.2318 109.308C75.2755 109.802 76.0172 110.544 76.5116 111.588C76.8549 112.302 76.9099 112.577 76.9099 113.579C76.9099 114.582 76.8549 114.856 76.5116 115.571C76.0172 116.614 75.2755 117.356 74.2318 117.85C73.5176 118.194 73.2429 118.249 72.2403 118.249C71.2378 118.249 70.9631 118.194 70.2489 117.85C69.2052 117.356 68.4635 116.614 67.9691 115.571C67.6257 114.856 67.5708 114.582 67.5708 113.579C67.5708 112.577 67.6257 112.302 67.9691 111.588C68.4635 110.544 69.2052 109.802 70.2489 109.308C70.9631 108.965 71.2378 108.91 72.2403 108.91C73.2429 108.91 73.5176 108.965 74.2318 109.308Z" fill="white"/>
<path d="M64.8927 118.647C65.9365 119.141 66.6781 119.883 67.1725 120.927C67.5159 121.641 67.5708 121.916 67.5708 122.918C67.5708 123.921 67.5159 124.196 67.1725 124.91C66.6781 125.953 65.9365 126.695 64.8927 127.19C64.1785 127.533 63.9039 127.588 62.9013 127.588C61.8987 127.588 61.624 127.533 60.9099 127.19C59.8661 126.695 59.1245 125.953 58.63 124.91C58.2867 124.196 58.2318 123.921 58.2318 122.918C58.2318 121.916 58.2867 121.641 58.63 120.927C59.1245 119.883 59.8661 119.141 60.9099 118.647C61.624 118.304 61.8987 118.249 62.9013 118.249C63.9039 118.249 64.1785 118.304 64.8927 118.647Z" fill="white"/>
<path d="M92.9099 71.9517C93.9536 72.4462 94.6953 73.1878 95.1897 74.2316L95.588 75.0556V96.0685L95.1897 96.8925C94.3931 98.5818 93.1708 99.3646 90.9734 99.6393C89.3391 99.8316 88.515 100.189 87.691 101.013C86.867 101.837 86.5099 102.661 86.3176 104.295C86.0429 106.493 85.2601 107.715 83.5708 108.511C82.8567 108.855 82.582 108.91 81.5794 108.91C80.5768 108.91 80.3021 108.855 79.588 108.511C77.8987 107.715 77.1159 106.493 76.8412 104.295C76.6489 102.661 76.2918 101.837 75.4678 101.013C74.5339 100.065 73.7648 99.7766 72.2403 99.7766C70.7159 99.7766 69.9468 100.065 69.0129 101.013C68.1888 101.837 67.8318 102.661 67.6395 104.295C67.3648 106.493 66.582 107.715 64.8927 108.511C64.1785 108.855 63.9039 108.91 62.9013 108.91C61.8987 108.91 61.624 108.855 60.9099 108.511C59.2206 107.715 58.4378 106.493 58.1631 104.295C57.9708 102.661 57.6137 101.837 56.7897 101.013C55.8558 100.065 55.0867 99.7766 53.5622 99.7766C52.4498 99.7766 52.1476 99.8316 51.5708 100.106C50.1425 100.82 49.2498 102.111 49.0163 103.814C48.9339 104.377 48.8927 110.434 48.9202 118.949C48.9614 131.955 48.9751 133.205 49.1948 133.741C49.5519 134.633 50.2112 135.499 50.8841 135.965L50.9006 135.977C52.1475 136.831 52.148 136.831 58.5064 136.913L64.3433 136.996L65.03 137.366C65.9777 137.861 66.7056 138.63 67.1725 139.605C67.5159 140.319 67.5708 140.594 67.5708 141.596C67.5708 142.599 67.5159 142.874 67.1725 143.588C66.6781 144.632 65.9365 145.373 64.8927 145.868L64.0687 146.266H58.9871C56.1991 146.266 53.521 146.321 53.0403 146.39C51.9416 146.554 51.0489 146.994 50.3348 147.708C49.5107 148.532 49.1536 149.356 48.9614 150.99C48.7004 153.119 47.9451 154.328 46.3519 155.165L45.6652 155.536L35.1588 155.605C25.7373 155.674 24.5974 155.701 24.0618 155.907C23.1691 156.264 22.3039 156.923 21.8369 157.596L21.8256 157.613C20.9717 158.86 20.9713 158.86 20.8893 165.219L20.8069 171.056L20.4361 171.742C19.9416 172.69 19.1725 173.418 18.1974 173.885C17.4833 174.228 17.2086 174.283 16.206 174.283C15.2034 174.283 14.9288 174.228 14.2146 173.885C13.1708 173.39 12.4292 172.649 11.9348 171.605L11.5365 170.781V149.768L11.9348 148.944C12.7313 147.255 13.9536 146.472 16.1511 146.197C17.7854 146.005 18.6094 145.648 19.4335 144.824C20.2575 144 20.6146 143.176 20.8069 141.541C21.0815 139.344 21.8644 138.122 23.5536 137.325C24.2678 136.982 24.5425 136.927 25.5451 136.927C26.5476 136.927 26.8223 136.982 27.5365 137.325C29.2258 138.122 30.0086 139.344 30.2833 141.541C30.4755 143.176 30.8326 144 31.6567 144.824C32.5906 145.771 33.3597 146.06 34.8841 146.06C36.4086 146.06 37.1777 145.771 38.1116 144.824C39.0592 143.89 39.3476 143.121 39.3476 141.596C39.3476 140.072 39.0592 139.303 38.1116 138.369C37.2876 137.545 36.4635 137.188 34.8292 136.996C33.2361 136.803 32.3708 136.432 31.5468 135.595C30.709 134.771 30.3382 133.905 30.1459 132.312C29.9536 130.678 29.5966 129.854 28.7725 129.03C27.9485 128.206 27.1245 127.849 25.4901 127.656C23.2927 127.382 22.0704 126.599 21.2738 124.91C20.9305 124.196 20.8755 123.921 20.8755 122.918C20.8755 121.916 20.9305 121.641 21.2738 120.927C21.7682 119.883 22.5099 119.141 23.5536 118.647L24.3777 118.249H29.4592C32.2609 118.249 34.9253 118.194 35.406 118.125C37.0266 117.878 38.3313 116.958 39.018 115.571C39.2927 114.994 39.3476 114.692 39.3476 113.579C39.3476 112.055 39.0592 111.286 38.1116 110.352C37.2876 109.528 36.4635 109.171 34.8292 108.978C32.6318 108.704 31.4094 107.921 30.6129 106.232C30.2695 105.517 30.2146 105.243 30.2146 104.24C30.2146 103.238 30.2695 102.963 30.6129 102.249C31.4094 100.559 32.6318 99.7766 34.8292 99.502C36.4635 99.3097 37.2876 98.9526 38.1116 98.1286C38.9356 97.3045 39.2927 96.4805 39.485 94.8462C39.7459 92.7174 40.5013 91.5088 42.0944 90.6711L42.7811 90.3002L62.6266 90.2316C80.9339 90.1629 82.5133 90.1492 83.0627 89.9294C83.9691 89.5586 84.8206 88.9131 85.2876 88.2401L85.2988 88.2237C86.1528 86.9768 86.1532 86.9762 86.2352 80.6178L86.3176 74.7809L86.6884 74.0942C87.1828 73.1466 87.9519 72.4187 88.927 71.9517C89.6412 71.6084 89.9159 71.5535 90.9185 71.5535C91.921 71.5535 92.1957 71.6084 92.9099 71.9517Z" fill="white"/>
<path d="M18.1974 109.308C19.2412 109.802 19.9828 110.544 20.4773 111.588C20.8206 112.302 20.8755 112.577 20.8755 113.579C20.8755 114.582 20.8206 114.856 20.4773 115.571C19.9828 116.614 19.2412 117.356 18.1974 117.85C17.4833 118.194 17.2086 118.249 16.206 118.249C15.2034 118.249 14.9288 118.194 14.2146 117.85C13.1708 117.356 12.4292 116.614 11.9348 115.571C11.5914 114.856 11.5365 114.582 11.5365 113.579C11.5365 112.577 11.5914 112.302 11.9348 111.588C12.4292 110.544 13.1708 109.802 14.2146 109.308C14.9288 108.965 15.2034 108.91 16.206 108.91C17.2086 108.91 17.4833 108.965 18.1974 109.308Z" fill="white"/>
<path d="M18.1974 90.6298C19.2412 91.1243 19.9828 91.8659 20.4773 92.9097C20.8206 93.6238 20.8755 93.8985 20.8755 94.9011C20.8755 95.9037 20.8206 96.1783 20.4773 96.8925C19.9828 97.9363 19.2412 98.6779 18.1974 99.1723C17.4833 99.5157 17.2086 99.5706 16.206 99.5706C15.2034 99.5706 14.9288 99.5157 14.2146 99.1723C13.1708 98.6779 12.4292 97.9363 11.9348 96.8925C11.5914 96.1783 11.5365 95.9037 11.5365 94.9011C11.5365 93.8985 11.5914 93.6238 11.9348 92.9097C12.4292 91.8659 13.1708 91.1243 14.2146 90.6298C14.9288 90.2865 15.2034 90.2316 16.206 90.2316C17.2086 90.2316 17.4833 90.2865 18.1974 90.6298Z" fill="white"/>
<path fill-rule="evenodd" clip-rule="evenodd" d="M62.7365 15.9723C69.6584 17.799 74.7124 22.8805 76.4567 29.7612L76.8412 31.2444V65.1672L76.4704 66.6505C74.7124 73.5586 69.576 78.6951 62.6678 80.4393L61.1846 80.8238H27.2618L25.7785 80.4393C18.8567 78.6951 13.7339 73.5723 11.976 66.6505L11.6051 65.1672V31.2444L11.976 29.7612C13.0884 25.4075 15.533 21.7269 19.0352 19.1311C21.4661 17.332 23.8833 16.302 26.9871 15.7251C27.7562 15.5741 31.382 15.5466 44.6352 15.5603L61.3219 15.5878L62.7365 15.9723ZM23.3064 31.1895C25.6412 27.6736 29.5691 25.3389 33.703 24.9955C35.5708 24.8445 52.697 24.8445 54.5236 24.9955C57.9845 25.2839 60.9785 26.6573 63.382 29.047C65.7717 31.4505 67.1451 34.4445 67.4335 37.9054C67.612 39.9655 67.612 56.4462 67.4335 58.5063C67.1451 61.9672 65.7717 64.9612 63.382 67.3646C60.9923 69.7543 57.9983 71.1277 54.5236 71.4161C52.4773 71.5947 35.9828 71.5947 33.9227 71.4161C30.4618 71.1277 27.4678 69.7543 25.0644 67.3646C22.6747 64.9612 21.3013 61.9672 21.0129 58.5063C20.8343 56.4462 20.8343 39.9655 21.0129 37.9054C21.2189 35.3234 21.933 33.2771 23.3064 31.1895Z" fill="white"/>
<path d="M51.1588 34.4033C53.8918 35.1174 56.0893 36.9028 57.2841 39.3475C58.218 41.2977 58.2318 41.3663 58.2318 48.2058C58.2318 54.9354 58.218 55.0728 57.3665 56.9269C56.515 58.7947 54.9768 60.3466 53.0815 61.2668C51.1313 62.2007 51.0627 62.2144 44.2232 62.2144C37.3837 62.2144 37.315 62.2007 35.3648 61.2668C32.9202 60.0719 31.1348 57.8745 30.4206 55.1415C30.1185 53.9329 30.1185 42.4788 30.4206 41.2702C31.1348 38.5372 32.9064 36.3397 35.3648 35.1449C37.2876 34.211 37.2876 34.211 44.1545 34.211C49.3185 34.1972 50.4858 34.2384 51.1588 34.4033Z" fill="white"/>
<path d="M139.605 15.9174C140.649 16.4118 141.391 17.1535 141.885 18.1972C142.228 18.9114 142.283 19.1861 142.283 20.1887C142.283 21.1912 142.228 21.4659 141.885 22.1801C141.088 23.8693 139.866 24.6522 137.669 24.9269C136.034 25.1191 135.21 25.4762 134.386 26.3002C133.439 27.2341 133.15 28.0032 133.15 29.5277C133.15 30.6402 133.205 30.9423 133.48 31.5191C134.167 32.9063 135.471 33.8264 137.092 34.0736C137.573 34.1423 140.251 34.1972 143.039 34.1972H148.12L148.944 34.5955C150.633 35.3921 151.416 36.6144 151.691 38.8118C151.883 40.4462 152.24 41.2702 153.064 42.0942C153.779 42.8084 154.671 43.2479 155.77 43.4127C156.251 43.4814 158.929 43.5363 161.717 43.5363H166.798L167.622 43.9346C168.666 44.429 169.408 45.1706 169.902 46.2144C170.245 46.9286 170.3 47.2032 170.3 48.2058C170.3 49.2084 170.245 49.4831 169.902 50.1972C169.106 51.8865 167.883 52.6693 165.686 52.944C164.052 53.1363 163.227 53.4934 162.403 54.3174C161.579 55.1414 161.222 55.9655 161.03 57.5998C160.755 59.7972 159.973 61.0196 158.283 61.8161C157.569 62.1595 157.294 62.2144 156.292 62.2144C155.289 62.2144 155.015 62.1595 154.3 61.8161C152.611 61.0196 151.828 59.7972 151.554 57.5998C151.361 55.9655 151.004 55.1414 150.18 54.3174C149.466 53.6032 148.573 53.1638 147.475 52.999C146.994 52.9303 142.228 52.8753 136.858 52.8753H127.107L126.283 52.4771C125.239 51.9826 124.498 51.241 124.003 50.1972L123.605 49.3732V44.2917C123.605 41.4899 123.55 38.8256 123.482 38.3449C123.234 36.7243 122.314 35.4196 120.927 34.7329C120.35 34.4582 120.048 34.4032 118.936 34.4032C117.411 34.4032 116.642 34.6917 115.708 35.6393C114.884 36.4633 114.527 37.2874 114.335 38.9217C114.142 40.5148 113.772 41.3801 112.934 42.2041C112.11 43.0419 111.245 43.4127 109.652 43.605C108.017 43.7972 107.193 44.1543 106.369 44.9784C105.655 45.6925 105.215 46.5852 105.051 47.6839C104.982 48.1646 104.927 52.9303 104.927 58.3002V68.0513L104.529 68.8753C104.034 69.9191 103.293 70.6608 102.249 71.1552C101.535 71.4985 101.26 71.5535 100.258 71.5535C99.2549 71.5535 98.9803 71.4985 98.2661 71.1552C96.5768 70.3586 95.794 69.1363 95.5193 66.9389C95.327 65.3045 94.97 64.4805 94.1459 63.6565C93.3219 62.8324 92.4979 62.4753 90.8635 62.2831C88.6661 62.0084 87.4438 61.2256 86.6472 59.5363C86.3039 58.8221 86.2489 58.5474 86.2489 57.5449C86.2489 56.5423 86.3039 56.2676 86.6472 55.5535C87.4438 53.8642 88.6661 53.0814 90.8635 52.8067C92.4979 52.6144 93.3219 52.2573 94.1459 51.4333C94.8601 50.7191 95.2996 49.8264 95.4644 48.7277C95.533 48.247 95.588 45.5689 95.588 42.7809V37.6994L95.9863 36.8754C96.7828 35.1861 98.0051 34.4032 100.203 34.1286C101.837 33.9363 102.661 33.5792 103.485 32.7552C104.433 31.8213 104.721 31.0522 104.721 29.5277C104.721 28.4153 104.666 28.1131 104.391 27.5363C103.705 26.1492 102.4 25.229 100.779 24.9818C100.299 24.9131 97.6343 24.8582 94.8326 24.8582H89.7511L88.927 24.4599C87.8833 23.9655 87.1416 23.2238 86.6472 22.1801C86.3039 21.4659 86.2489 21.1912 86.2489 20.1887C86.2489 19.1861 86.3039 18.9114 86.6472 18.1972C87.1416 17.1535 87.8833 16.4118 88.927 15.9174L89.7511 15.5191H138.781L139.605 15.9174Z" fill="white"/>
<path d="M167.622 15.9174C168.076 16.1234 168.68 16.5492 168.982 16.8376C169.27 17.1397 169.696 17.744 169.902 18.1972L170.3 19.0213V30.6951L169.902 31.5191C169.408 32.5629 168.666 33.3045 167.622 33.799C166.908 34.1423 166.633 34.1972 165.631 34.1972C164.628 34.1972 164.354 34.1423 163.639 33.799C162.596 33.3045 161.854 32.5629 161.36 31.5191L160.961 30.6951V19.0213L161.36 18.1972C161.566 17.744 161.991 17.1397 162.28 16.8376C162.582 16.5492 163.186 16.1234 163.639 15.9174C164.354 15.5741 164.628 15.5191 165.631 15.5191C166.633 15.5191 166.908 15.5741 167.622 15.9174Z" fill="white"/>
<path fill-rule="evenodd" clip-rule="evenodd" d="M230.839 15.9723C237.761 17.799 242.815 22.8805 244.56 29.7612L244.944 31.2444V65.1672L244.573 66.6505C242.815 73.5586 237.679 78.6951 230.771 80.4393L229.288 80.8238H195.365L193.882 80.4393C186.96 78.6951 181.837 73.5723 180.079 66.6505L179.708 65.1672V31.2444L180.079 29.7612C180.958 26.314 182.62 23.3612 185.051 20.9303C187.797 18.1835 191.121 16.4668 195.09 15.7251C195.859 15.5741 199.485 15.5466 212.738 15.5603L229.425 15.5878L230.839 15.9723ZM191.409 31.1895C193.744 27.6736 197.672 25.3389 201.806 24.9955C203.674 24.8445 220.8 24.8445 222.627 24.9955C226.088 25.2839 229.082 26.6573 231.485 29.047C233.875 31.4505 235.248 34.4445 235.536 37.9054C235.605 38.7706 235.674 43.4127 235.674 48.2058C235.674 52.999 235.605 57.641 235.536 58.5063C235.248 61.9672 233.875 64.9612 231.485 67.3646C229.095 69.7543 226.101 71.1277 222.627 71.4161C220.58 71.5947 204.086 71.5947 202.026 71.4161C198.565 71.1277 195.571 69.7543 193.167 67.3646C190.778 64.9612 189.404 61.9672 189.116 58.5063C188.937 56.4462 188.937 39.9655 189.116 37.9054C189.322 35.3234 190.036 33.2771 191.409 31.1895Z" fill="white"/>
<path d="M219.262 34.4033C221.995 35.1174 224.192 36.9028 225.387 39.3475C226.321 41.2977 226.335 41.3663 226.335 48.2058C226.335 54.9354 226.321 55.0728 225.47 56.9269C224.618 58.7947 223.08 60.3466 221.185 61.2668C219.234 62.2007 219.166 62.2144 212.326 62.2144C205.487 62.2144 205.418 62.2007 203.468 61.2668C201.573 60.3466 200.034 58.7947 199.183 56.9269C198.331 55.0728 198.318 54.9354 198.318 48.2058C198.318 41.4762 198.331 41.3389 199.183 39.4848C200.034 37.617 201.573 36.0651 203.468 35.1449C205.391 34.211 205.391 34.211 212.258 34.211C217.421 34.1972 218.589 34.2384 219.262 34.4033Z" fill="white"/>
<path d="M148.944 62.6127C149.397 62.8187 150.002 63.2444 150.304 63.5329C150.592 63.835 151.018 64.4393 151.224 64.8925L151.622 65.7166V77.3904L151.224 78.2144C150.73 79.2582 149.988 79.9998 148.944 80.4942C148.23 80.8376 147.955 80.8925 146.953 80.8925C145.95 80.8925 145.676 80.8376 144.961 80.4942C143.918 79.9998 143.176 79.2582 142.682 78.2144L142.283 77.3904V65.7166L142.682 64.8925C142.888 64.4393 143.313 63.835 143.602 63.5329C143.904 63.2444 144.508 62.8187 144.961 62.6127C145.676 62.2693 145.95 62.2144 146.953 62.2144C147.955 62.2144 148.23 62.2693 148.944 62.6127Z" fill="white"/>
<path d="M130.266 71.9517C131.31 72.4462 132.051 73.1878 132.546 74.2316C132.889 74.9457 132.944 75.2204 132.944 76.223C132.944 77.2256 132.889 77.5002 132.546 78.2144C132.051 79.2582 131.31 79.9998 130.266 80.4942C129.552 80.8376 129.277 80.8925 128.275 80.8925C127.272 80.8925 126.997 80.8376 126.283 80.4942C125.239 79.9998 124.498 79.2582 124.003 78.2144C123.66 77.5002 123.605 77.2256 123.605 76.223C123.605 75.2204 123.66 74.9457 124.003 74.2316C124.498 73.1878 125.239 72.4462 126.283 71.9517C126.997 71.6084 127.272 71.5535 128.275 71.5535C129.277 71.5535 129.552 71.6084 130.266 71.9517Z" fill="white"/>
<path d="M120.927 62.6127C121.971 63.1071 122.712 63.8487 123.207 64.8925C123.55 65.6067 123.605 65.8814 123.605 66.8839C123.605 67.8865 123.55 68.1612 123.207 68.8753C122.712 69.9191 121.971 70.6608 120.927 71.1552C120.213 71.4985 119.938 71.5535 118.936 71.5535C117.933 71.5535 117.658 71.4985 116.944 71.1552C115.9 70.6608 115.159 69.9191 114.664 68.8753C114.321 68.1612 114.266 67.8865 114.266 66.8839C114.266 65.8814 114.321 65.6067 114.664 64.8925C115.159 63.8487 115.9 63.1071 116.944 62.6127C117.658 62.2693 117.933 62.2144 118.936 62.2144C119.938 62.2144 120.213 62.2693 120.927 62.6127Z" fill="white"/>
<path d="M111.588 71.9517C113.277 72.7483 114.06 73.9706 114.335 76.168C114.527 77.8024 114.884 78.6264 115.708 79.4505C116.532 80.2745 117.356 80.6316 118.991 80.8238C121.188 81.0985 122.41 81.8814 123.207 83.5706C123.55 84.2848 123.605 84.5595 123.605 85.562C123.605 86.5646 123.55 86.8393 123.207 87.5535C122.712 88.5972 121.971 89.3389 120.927 89.8333L120.103 90.2316H108.429L107.605 89.8333C106.561 89.3389 105.82 88.5972 105.325 87.5535L104.927 86.7294V75.0556L105.325 74.2316C105.82 73.1878 106.561 72.4462 107.605 71.9517C108.319 71.6084 108.594 71.5535 109.597 71.5535C110.599 71.5535 110.874 71.6084 111.588 71.9517Z" fill="white"/>
<path d="M130.266 90.6298C131.31 91.1243 132.051 91.8659 132.546 92.9097C132.889 93.6238 132.944 93.8985 132.944 94.9011C132.944 95.9037 132.889 96.1783 132.546 96.8925C132.051 97.9363 131.31 98.6779 130.266 99.1723C129.552 99.5157 129.277 99.5706 128.275 99.5706C127.272 99.5706 126.997 99.5157 126.283 99.1723C125.239 98.6779 124.498 97.9363 124.003 96.8925C123.66 96.1783 123.605 95.9037 123.605 94.9011C123.605 93.8985 123.66 93.6238 124.003 92.9097C124.498 91.8659 125.239 91.1243 126.283 90.6298C126.997 90.2865 127.272 90.2316 128.275 90.2316C129.277 90.2316 129.552 90.2865 130.266 90.6298Z" fill="white"/>
<path d="M120.927 99.9689C121.971 100.463 122.712 101.205 123.207 102.249C123.55 102.963 123.605 103.238 123.605 104.24C123.605 105.243 123.55 105.517 123.207 106.232C122.712 107.275 121.971 108.017 120.927 108.511C120.213 108.855 119.938 108.91 118.936 108.91C117.933 108.91 117.658 108.855 116.944 108.511C115.9 108.017 115.159 107.275 114.664 106.232C114.321 105.517 114.266 105.243 114.266 104.24C114.266 103.238 114.321 102.963 114.664 102.249C115.159 101.205 115.9 100.463 116.944 99.9689C117.658 99.6256 117.933 99.5706 118.936 99.5706C119.938 99.5706 120.213 99.6256 120.927 99.9689Z" fill="white"/>
<path d="M158.283 109.308C158.736 109.514 159.341 109.94 159.643 110.228C159.931 110.53 160.357 111.135 160.563 111.588C160.906 112.302 160.961 112.577 160.961 113.579C160.961 114.582 160.906 114.856 160.563 115.571C160.069 116.614 159.327 117.356 158.283 117.85C157.569 118.194 157.294 118.249 156.292 118.249C155.289 118.249 155.015 118.194 154.3 117.85C153.257 117.356 152.515 116.614 152.021 115.571C151.677 114.856 151.622 114.582 151.622 113.579C151.622 112.577 151.677 112.302 152.021 111.588C152.227 111.135 152.652 110.53 152.941 110.228C153.243 109.94 153.847 109.514 154.3 109.308C155.015 108.965 155.289 108.91 156.292 108.91C157.294 108.91 157.569 108.965 158.283 109.308Z" fill="white"/>
<path d="M204.979 127.986C206.022 128.48 206.764 129.222 207.258 130.266C207.602 130.98 207.657 131.255 207.657 132.257C207.657 133.26 207.602 133.535 207.258 134.249C206.764 135.293 206.022 136.034 204.979 136.529C204.264 136.872 203.99 136.927 202.987 136.927C201.985 136.927 201.71 136.872 200.996 136.529C199.952 136.034 199.21 135.293 198.716 134.249C198.373 133.535 198.318 133.26 198.318 132.257C198.318 131.255 198.373 130.98 198.716 130.266C199.21 129.222 199.952 128.48 200.996 127.986C201.71 127.643 201.985 127.588 202.987 127.588C203.99 127.588 204.264 127.643 204.979 127.986Z" fill="white"/>
<path d="M223.657 99.9689C224.11 100.175 224.714 100.601 225.016 100.889C225.305 101.191 225.73 101.796 225.936 102.249C226.28 102.963 226.335 103.238 226.335 104.24C226.335 105.243 226.28 105.517 225.936 106.232C225.442 107.275 224.7 108.017 223.657 108.511C222.942 108.855 222.668 108.91 221.665 108.91C220.663 108.91 220.388 108.855 219.674 108.511C218.63 108.017 217.888 107.275 217.394 106.232C217.051 105.517 216.996 105.243 216.996 104.24C216.996 103.238 217.051 102.963 217.394 102.249C217.6 101.796 218.026 101.191 218.314 100.889C218.616 100.601 219.221 100.175 219.674 99.9689C220.388 99.6256 220.663 99.5706 221.665 99.5706C222.668 99.5706 222.942 99.6256 223.657 99.9689Z" fill="white"/>
<path d="M242.335 174.681C243.379 175.176 244.12 175.917 244.615 176.961L245.013 177.785V189.459L244.615 190.283C244.12 191.327 243.379 192.068 242.335 192.563C241.621 192.906 241.346 192.961 240.343 192.961C239.341 192.961 239.066 192.906 238.352 192.563C237.308 192.068 236.567 191.327 236.072 190.283L235.674 189.459V177.785L236.072 176.961C236.567 175.917 237.308 175.176 238.352 174.681C239.066 174.338 239.341 174.283 240.343 174.283C241.346 174.283 241.621 174.338 242.335 174.681Z" fill="white"/>
<path d="M186.3 184.02C187.344 184.515 188.086 185.256 188.58 186.3C188.924 187.014 188.979 187.289 188.979 188.292C188.979 189.294 188.924 189.569 188.58 190.283C188.086 191.327 187.344 192.068 186.3 192.563C185.586 192.906 185.312 192.961 184.309 192.961C183.306 192.961 183.032 192.906 182.318 192.563C181.274 192.068 180.532 191.327 180.038 190.283C179.694 189.569 179.639 189.294 179.639 188.292C179.639 187.289 179.694 187.014 180.038 186.3C180.532 185.256 181.274 184.515 182.318 184.02C183.032 183.677 183.306 183.622 184.309 183.622C185.312 183.622 185.586 183.677 186.3 184.02Z" fill="white"/>
<path d="M92.9099 174.681C93.3631 174.887 93.9674 175.313 94.2695 175.602C94.5579 175.904 94.9837 176.508 95.1897 176.961L95.588 177.785V182.867C95.588 185.655 95.6429 188.333 95.7116 188.814C95.8764 189.912 96.3159 190.805 97.03 191.519C97.8541 192.343 98.6781 192.7 100.312 192.893C102.51 193.167 103.732 193.95 104.529 195.639L104.927 196.463V201.545C104.927 204.333 104.982 207.011 105.051 207.492C105.215 208.59 105.655 209.483 106.369 210.197C107.193 211.021 108.017 211.378 109.652 211.571C111.245 211.763 112.11 212.134 112.934 212.971C113.772 213.796 114.142 214.661 114.335 216.254C114.527 217.888 114.884 218.712 115.708 219.536C116.642 220.484 117.411 220.772 118.936 220.772C120.46 220.772 121.229 220.484 122.163 219.536C122.987 218.712 123.344 217.888 123.536 216.254C123.811 214.056 124.594 212.834 126.283 212.038C126.997 211.694 127.272 211.639 128.275 211.639C129.277 211.639 129.552 211.694 130.266 212.038C131.31 212.532 132.051 213.274 132.546 214.317L132.944 215.141V220.223C132.944 223.011 132.999 225.689 133.068 226.17C133.233 227.268 133.672 228.161 134.386 228.875C135.21 229.699 136.034 230.056 137.669 230.249C139.866 230.523 141.088 231.306 141.885 232.995C142.228 233.71 142.283 233.984 142.283 234.987C142.283 235.989 142.228 236.264 141.885 236.978C141.088 238.668 139.866 239.45 137.669 239.725C136.034 239.917 135.21 240.274 134.386 241.099C133.562 241.923 133.205 242.747 133.013 244.381C132.738 246.578 131.955 247.801 130.266 248.597C129.552 248.941 129.277 248.996 128.275 248.996C127.272 248.996 126.997 248.941 126.283 248.597C124.594 247.801 123.811 246.578 123.536 244.381C123.344 242.747 122.987 241.923 122.163 241.099C121.339 240.274 120.515 239.917 118.881 239.725C117.288 239.533 116.422 239.162 115.598 238.324C114.761 237.5 114.39 236.635 114.197 235.042C114.005 233.408 113.648 232.583 112.824 231.759C112 230.935 111.176 230.578 109.542 230.386C107.948 230.194 107.083 229.823 106.259 228.985C105.421 228.161 105.051 227.296 104.858 225.703C104.666 224.068 104.309 223.244 103.485 222.42C102.771 221.706 101.878 221.267 100.779 221.102C100.299 221.033 97.6343 220.978 94.8326 220.978H89.7511L88.927 220.58C87.8833 220.086 87.1416 219.344 86.6472 218.3L86.2489 217.476V177.785L86.6472 176.961C86.8532 176.508 87.279 175.904 87.5674 175.602C87.8695 175.313 88.4738 174.887 88.927 174.681C89.6412 174.338 89.9159 174.283 90.9185 174.283C91.921 174.283 92.1957 174.338 92.9099 174.681Z" fill="white"/>
<path d="M102.249 230.716C103.293 231.21 104.034 231.952 104.529 232.995C104.872 233.71 104.927 233.984 104.927 234.987C104.927 235.989 104.872 236.264 104.529 236.978C104.034 238.022 103.293 238.764 102.249 239.258C101.535 239.602 101.26 239.656 100.258 239.656C99.2549 239.656 98.9803 239.602 98.2661 239.258C97.2223 238.764 96.4807 238.022 95.9863 236.978C95.6429 236.264 95.588 235.989 95.588 234.987C95.588 233.984 95.6429 233.71 95.9863 232.995C96.4807 231.952 97.2223 231.21 98.2661 230.716C98.9803 230.372 99.2549 230.317 100.258 230.317C101.26 230.317 101.535 230.372 102.249 230.716Z" fill="white"/>
<path d="M92.9099 240.055C93.9536 240.549 94.6953 241.291 95.1897 242.335C95.533 243.049 95.588 243.323 95.588 244.326C95.588 245.329 95.533 245.603 95.1897 246.317C94.6953 247.361 93.9536 248.103 92.9099 248.597C92.1957 248.941 91.921 248.996 90.9185 248.996C89.9159 248.996 89.6412 248.941 88.927 248.597C87.8833 248.103 87.1416 247.361 86.6472 246.317C86.3039 245.603 86.2489 245.329 86.2489 244.326C86.2489 243.323 86.3039 243.049 86.6472 242.335C87.1416 241.291 87.8833 240.549 88.927 240.055C89.6412 239.711 89.9159 239.656 90.9185 239.656C91.921 239.656 92.1957 239.711 92.9099 240.055Z" fill="white"/>
<path fill-rule="evenodd" clip-rule="evenodd" d="M62.7365 184.075C69.6584 185.902 74.7124 190.983 76.4567 197.864L76.8412 199.347V233.27L76.4704 234.753C74.7124 241.662 69.576 246.798 62.6678 248.542L61.1846 248.927H27.2618L25.7785 248.542C18.8567 246.798 13.7339 241.675 11.976 234.753L11.6051 233.27V199.347L11.976 197.864C13.0884 193.511 15.533 189.83 19.0352 187.234C21.4661 185.435 23.8833 184.405 26.9871 183.828C27.7562 183.677 31.382 183.65 44.6352 183.663L61.3219 183.691L62.7365 184.075ZM23.3064 199.293C25.6412 195.777 29.5691 193.442 33.703 193.099C35.5708 192.947 52.697 192.947 54.5236 193.099C57.9845 193.387 60.9785 194.76 63.382 197.15C65.7717 199.553 67.1451 202.547 67.4335 206.008C67.612 208.068 67.612 224.549 67.4335 226.609C67.1451 230.07 65.7717 233.064 63.382 235.468C60.9923 237.857 57.9983 239.231 54.5236 239.519C52.4773 239.698 35.9828 239.698 33.9227 239.519C30.4618 239.231 27.4678 237.857 25.0644 235.468C22.6747 233.064 21.3013 230.07 21.0129 226.609C20.8343 224.549 20.8343 208.068 21.0129 206.008C21.2189 203.426 21.933 201.38 23.3064 199.293Z" fill="white"/>
<path d="M51.1588 202.506C53.8918 203.22 56.0893 205.006 57.2841 207.45C58.218 209.401 58.2318 209.469 58.2318 216.309C58.2318 223.038 58.218 223.176 57.3665 225.03C56.515 226.898 54.9768 228.45 53.0815 229.37C51.1313 230.304 51.0627 230.317 44.2232 230.317C37.3837 230.317 37.315 230.304 35.3648 229.37C32.9202 228.175 31.1348 225.977 30.4206 223.244C30.1185 222.036 30.1185 210.582 30.4206 209.373C31.1348 206.64 32.9064 204.443 35.3648 203.248C37.2876 202.314 37.2876 202.314 44.1545 202.314C49.3185 202.3 50.4858 202.341 51.1588 202.506Z" fill="white"/>
<path d="M74.2318 146.664C74.685 146.87 75.2893 147.296 75.5914 147.584C75.8798 147.886 76.3056 148.491 76.5116 148.944C76.8549 149.658 76.9099 149.933 76.9099 150.935C76.9099 151.938 76.8549 152.213 76.5116 152.927C76.3056 153.38 75.8798 153.984 75.5914 154.286C75.2893 154.575 74.685 155.001 74.2318 155.207C73.5176 155.55 73.2429 155.605 72.2403 155.605C71.2378 155.605 70.9631 155.55 70.2489 155.207C69.2052 154.712 68.4635 153.971 67.9691 152.927C67.6257 152.213 67.5708 151.938 67.5708 150.935C67.5708 149.933 67.6257 149.658 67.9691 148.944C68.4635 147.9 69.2052 147.159 70.2489 146.664C70.9631 146.321 71.2378 146.266 72.2403 146.266C73.2429 146.266 73.5176 146.321 74.2318 146.664Z" fill="white"/>
<path d="M18.1974 127.986C19.2412 128.48 19.9828 129.222 20.4773 130.266C20.8206 130.98 20.8755 131.255 20.8755 132.257C20.8755 133.26 20.8206 133.535 20.4773 134.249C19.9828 135.293 19.2412 136.034 18.1974 136.529C17.4833 136.872 17.2086 136.927 16.206 136.927C15.2034 136.927 14.9288 136.872 14.2146 136.529C13.1708 136.034 12.4292 135.293 11.9348 134.249C11.5914 133.535 11.5365 133.26 11.5365 132.257C11.5365 131.255 11.5914 130.98 11.9348 130.266C12.4292 129.222 13.1708 128.48 14.2146 127.986C14.9288 127.643 15.2034 127.588 16.206 127.588C17.2086 127.588 17.4833 127.643 18.1974 127.986Z" fill="white"/>
</svg>
